<?xml version="1.0" standalone="no"?>
<!DOCTYPE svg PUBLIC "-//W3C//DTD SVG 20010904//EN"
 "http://www.w3.org/TR/2001/REC-SVG-20010904/DTD/svg10.dtd">
<svg version="1.0" xmlns="http://www.w3.org/2000/svg"
 width="1071.000000pt" height="1071.000000pt" viewBox="0 0 1071.000000 1071.000000"
 preserveAspectRatio="xMidYMid meet">
<metadata>
Created by potrace 1.11, written by Peter Selinger 2001-2013
</metadata>
<g transform="translate(0.000000,1071.000000) scale(0.100000,-0.100000)"
fill="#000000" stroke="none">
<path d="M10328 9594 c-2 -2 -54 -6 -115 -9 -63 -2 -176 -18 -260 -35 -125
-25 -163 -29 -238 -24 -94 6 -128 -1 -533 -107 -75 -20 -88 -20 -125 -8 -57
18 -155 14 -246 -11 -78 -21 -161 -19 -261 5 -62 16 -169 12 -279 -10 -14 -3
-111 -5 -216 -5 -312 2 -358 1 -412 -11 -29 -7 -53 -15 -53 -18 0 -3 -10 -7
-23 -8 -30 -2 -225 -48 -312 -73 -94 -27 -229 -57 -290 -66 -71 -9 -63 -7
-330 -74 -314 -78 -481 -142 -610 -234 -66 -47 -247 -140 -393 -202 -58 -25
-131 -63 -163 -85 -32 -22 -84 -54 -116 -71 -31 -17 -77 -46 -101 -65 -24 -18
-67 -40 -95 -48 -29 -9 -85 -33 -124 -53 -121 -62 -445 -285 -693 -478 -36
-28 -90 -65 -120 -84 -168 -101 -427 -339 -688 -633 -62 -70 -117 -127 -122
-127 -4 0 -67 -89 -139 -197 -72 -109 -164 -245 -203 -303 -78 -112 -182 -283
-254 -418 -24 -46 -51 -90 -59 -98 -8 -8 -32 -52 -54 -97 -21 -45 -48 -90 -59
-101 -12 -10 -27 -35 -33 -55 -30 -93 -201 -452 -436 -914 -23 -45 -40 -88
-37 -96 5 -16 -34 -101 -47 -101 -5 0 -45 -75 -89 -167 -84 -173 -130 -311
-199 -598 -38 -158 -92 -306 -172 -473 -46 -97 -68 -158 -94 -266 -18 -78 -43
-169 -55 -202 -11 -34 -23 -71 -25 -84 -7 -35 -34 -71 -134 -180 -52 -56 -119
-132 -149 -168 -29 -37 -61 -76 -71 -87 -9 -11 -45 -58 -81 -105 -35 -47 -89
-112 -119 -145 -31 -34 -98 -110 -149 -170 -52 -61 -206 -223 -344 -362 l-251
-252 13 -33 c18 -46 27 -56 76 -84 47 -28 101 -38 155 -29 30 5 39 12 51 43
16 41 129 193 257 347 46 55 111 134 144 175 34 41 145 158 247 260 102 102
204 209 228 237 23 28 64 66 90 83 50 33 79 35 167 11 22 -5 63 -13 90 -16 28
-3 57 -7 65 -10 8 -2 56 -7 107 -10 57 -3 120 -14 165 -29 100 -33 265 -64
373 -70 50 -3 115 -8 145 -10 30 -3 89 -8 130 -11 41 -3 100 -10 130 -15 30
-6 96 -15 145 -20 50 -5 101 -12 115 -15 14 -3 63 -8 110 -11 78 -6 96 -4 185
24 121 38 210 58 290 66 32 3 86 13 120 20 33 8 94 22 135 32 41 9 113 30 160
46 47 16 90 30 95 32 6 1 28 10 50 20 86 37 298 106 392 126 196 42 324 80
451 134 181 77 357 142 454 166 87 22 233 92 401 192 55 32 103 58 108 58 5 0
28 20 52 43 23 24 119 104 212 177 232 182 344 281 450 395 50 54 128 137 175
184 151 152 250 273 250 305 0 20 66 112 132 185 19 20 82 95 142 166 60 72
163 195 230 275 67 80 193 235 281 345 87 110 173 214 190 230 17 17 62 87 99
156 64 117 141 229 299 436 34 44 88 121 120 170 87 134 238 346 324 458 70
89 363 562 363 584 0 5 4 11 8 13 15 5 59 110 82 192 13 47 22 108 22 152 0
41 11 127 24 191 14 65 27 134 30 153 9 60 43 166 78 242 19 40 46 101 60 135
49 117 211 392 301 510 62 82 238 264 280 291 22 13 69 57 105 96 36 39 115
120 176 181 95 93 112 116 117 148 l5 37 -57 1 c-79 2 -151 6 -188 12 -17 3
-33 3 -35 1z"/>
</g>
</svg>
