<?xml version="1.0" standalone="no"?>
<!DOCTYPE svg PUBLIC "-//W3C//DTD SVG 20010904//EN"
 "http://www.w3.org/TR/2001/REC-SVG-20010904/DTD/svg10.dtd">
<svg version="1.0" xmlns="http://www.w3.org/2000/svg"
 width="1071.000000pt" height="1071.000000pt" viewBox="0 0 1071.000000 1071.000000"
 preserveAspectRatio="xMidYMid meet">
<metadata>
Created by potrace 1.14, written by Peter Selinger 2001-2017
</metadata>
<g transform="translate(0.000000,1071.000000) scale(0.100000,-0.100000)"
fill="#000000" stroke="none">
<path d="M5033 9442 c-12 -8 -25 -54 -13 -47 5 3 5 -8 0 -24 -4 -16 -6 -32 -2
-35 3 -3 3 -6 -1 -6 -3 0 -16 10 -29 23 -21 20 -34 24 -55 17 -5 -1 -11 -2
-15 -1 -5 0 -8 -4 -8 -9 0 -6 -6 -10 -14 -8 -8 2 -31 -13 -52 -32 -22 -19 -42
-34 -46 -32 -5 1 -8 -3 -8 -9 0 -5 -4 -8 -9 -4 -5 3 -18 -5 -28 -17 -10 -13
-41 -39 -68 -58 -28 -19 -51 -38 -53 -42 -2 -4 -8 -8 -14 -8 -16 0 -106 -100
-124 -139 -9 -20 -29 -46 -45 -59 -16 -13 -27 -28 -24 -33 4 -5 -1 -9 -10 -9
-9 0 -14 -4 -11 -9 3 -5 0 -11 -8 -14 -28 -11 -114 -151 -110 -180 1 -9 -1
-17 -4 -17 -4 0 -13 -9 -20 -21 -11 -17 -11 -20 0 -13 7 4 0 -6 -16 -22 -15
-16 -37 -47 -48 -69 -12 -22 -25 -43 -31 -46 -5 -4 -10 -20 -11 -37 0 -17 -2
-29 -4 -27 -2 2 -12 -5 -23 -16 -10 -10 -31 -19 -45 -19 -14 0 -23 -4 -20 -9
4 -5 -3 -7 -14 -4 -11 3 -27 0 -35 -7 -8 -7 -21 -10 -30 -7 -8 4 -17 2 -20 -4
-4 -5 -13 -6 -22 0 -11 6 -30 0 -62 -19 -48 -28 -94 -44 -123 -43 -10 0 -20
-8 -23 -18 -5 -14 -13 -17 -34 -13 -18 4 -32 0 -40 -10 -8 -9 -22 -16 -32 -16
-11 0 -19 -4 -19 -8 0 -8 -46 -33 -60 -34 -8 -1 -93 -60 -114 -80 -11 -10 -23
-18 -28 -18 -4 0 -8 -7 -8 -15 0 -8 -3 -15 -8 -15 -12 0 -45 -67 -38 -79 4 -6
-2 -19 -14 -31 -11 -11 -17 -20 -12 -20 4 0 -9 -14 -28 -30 -19 -16 -35 -36
-35 -43 0 -15 -64 -118 -79 -129 -6 -4 -7 -10 -4 -14 4 -4 2 -16 -4 -28 -7
-11 -13 -28 -14 -36 -3 -29 -9 -45 -23 -59 -10 -11 -11 -16 -2 -19 9 -3 7 -10
-6 -25 -10 -11 -12 -17 -5 -13 7 4 12 1 12 -8 0 -9 -4 -16 -9 -16 -5 0 -11
-11 -13 -25 -3 -14 -1 -25 5 -25 5 0 3 -10 -5 -22 -9 -15 -14 -44 -12 -80 1
-32 -2 -58 -8 -58 -5 0 -6 -4 -3 -10 3 -5 3 -10 -2 -10 -9 0 -15 -41 -17 -122
0 -31 -4 -54 -8 -52 -4 3 -7 -10 -7 -28 -1 -18 -3 -55 -6 -83 -2 -27 -6 -66
-8 -85 -1 -19 -6 -40 -10 -46 -3 -6 -3 -14 1 -18 7 -7 9 -31 13 -136 2 -45 22
-100 37 -100 4 0 8 -9 8 -20 0 -11 -5 -20 -11 -20 -5 0 -4 -4 3 -9 7 -4 15
-17 17 -27 2 -10 4 -21 4 -24 1 -3 5 2 10 9 8 12 12 10 22 -12 7 -15 19 -27
27 -27 9 0 12 -3 9 -6 -3 -4 9 -22 27 -40 28 -28 33 -39 29 -68 -2 -20 2 -38
8 -42 8 -5 9 -3 4 6 -5 8 -4 11 2 7 7 -5 6 -21 -4 -49 -8 -24 -16 -79 -18
-123 -2 -44 -4 -84 -6 -90 -4 -13 11 -55 19 -55 4 0 7 -11 7 -25 0 -14 -2 -25
-5 -25 -9 0 -10 -63 0 -75 5 -6 5 -17 0 -25 -5 -9 -5 -19 2 -27 6 -7 7 -13 3
-13 -4 0 -2 -7 5 -15 9 -10 9 -15 1 -15 -6 0 -11 -5 -11 -11 0 -5 3 -8 8 -6 4
3 7 -26 6 -64 0 -39 3 -72 8 -75 4 -3 6 -9 3 -14 -3 -4 2 -13 10 -20 11 -9 12
-17 4 -32 -9 -16 -8 -19 3 -13 10 6 10 5 1 -5 -9 -10 -8 -18 4 -36 8 -13 11
-24 5 -24 -15 0 -9 -32 10 -52 10 -10 15 -24 12 -33 -4 -8 -1 -15 6 -15 6 0 8
-5 5 -11 -4 -6 2 -13 13 -16 17 -4 19 -9 12 -29 -10 -25 -3 -57 10 -49 5 3 6
-4 3 -15 -3 -12 0 -20 8 -20 7 0 10 -3 6 -6 -3 -4 1 -20 10 -37 24 -47 32 -82
21 -100 -5 -10 -5 -17 -1 -17 7 0 10 -32 13 -135 0 -5 -1 -34 -2 -64 -3 -47
-7 -57 -37 -82 -19 -16 -37 -27 -39 -24 -3 2 -14 -1 -26 -7 -11 -7 -24 -11
-28 -10 -5 1 -8 -2 -8 -8 0 -5 -6 -7 -14 -4 -8 3 -28 -1 -44 -10 -16 -8 -32
-12 -36 -9 -3 4 -6 0 -6 -8 0 -11 -2 -11 -10 1 -6 9 -10 10 -10 3 0 -8 -9 -9
-29 -3 -16 4 -32 5 -35 2 -10 -9 -46 -10 -40 0 3 4 -1 8 -9 8 -17 0 -53 38
-44 47 4 3 1 13 -6 21 -7 10 -8 13 -1 9 7 -4 12 2 12 18 0 33 -15 32 -53 -4
l-30 -30 -26 23 c-14 12 -29 28 -33 36 -20 41 -33 59 -39 53 -6 -6 -8 -1 -11
40 -1 6 -7 16 -13 20 -7 4 -13 18 -13 30 0 13 -4 27 -9 32 -11 13 -21 95 -12
95 4 0 7 15 6 33 -1 17 5 39 13 49 11 14 19 56 21 116 1 7 5 11 9 8 5 -3 8 11
7 32 -1 20 4 46 12 58 7 11 10 24 6 27 -3 4 0 7 8 7 11 0 11 2 -1 10 -8 5 -10
10 -5 10 6 0 9 18 8 43 -4 57 -4 57 -1 100 2 21 0 43 -3 49 -4 6 -3 23 3 37 9
22 16 66 20 121 1 8 6 18 12 22 8 5 7 11 -1 19 -9 9 -7 16 8 32 10 12 16 23
12 26 -5 3 -9 17 -11 31 -1 13 -8 28 -15 32 -9 6 -9 8 2 8 11 0 11 3 1 15 -10
12 -10 15 0 15 9 0 8 7 -4 25 -9 14 -14 25 -10 25 4 0 1 7 -6 15 -7 8 -9 15
-5 15 4 0 0 11 -8 24 -9 13 -18 35 -19 50 -2 14 -7 28 -11 32 -3 4 -2 16 4 27
8 14 8 18 0 13 -6 -4 -11 -2 -11 4 0 6 -8 23 -17 37 -10 14 -19 38 -21 52 -4
35 -39 95 -65 112 -11 8 -29 24 -40 36 -11 12 -24 20 -29 17 -4 -3 -8 -2 -8 3
0 8 -36 26 -79 38 -17 5 -21 4 -16 -5 6 -9 3 -9 -13 -1 -11 6 -28 8 -36 5 -10
-4 -16 -1 -16 7 0 9 -3 10 -8 4 -4 -6 -29 -11 -57 -12 -68 -2 -67 -2 -59 -15
4 -6 3 -8 -2 -5 -12 7 -205 -58 -197 -67 6 -6 -2 -8 -47 -11 -39 -3 -80 -16
-80 -27 0 -5 -4 -7 -9 -3 -5 3 -12 1 -16 -5 -3 -5 -14 -10 -23 -10 -10 0 -25
-9 -35 -20 -9 -11 -23 -20 -31 -20 -8 0 -23 -15 -35 -32 -11 -18 -21 -29 -21
-25 0 13 -30 -20 -30 -33 0 -6 -5 -8 -11 -5 -6 4 -13 -2 -16 -14 -3 -12 -11
-21 -18 -21 -8 0 -24 -15 -37 -32 -28 -40 -60 -98 -53 -98 2 0 -11 -29 -30
-66 -26 -50 -32 -70 -26 -88 6 -13 5 -29 -1 -40 -14 -24 -17 -66 -6 -66 5 0 6
-4 3 -10 -3 -5 -1 -10 5 -10 7 0 8 -6 1 -19 -6 -10 -9 -20 -7 -22 2 -2 7 -20
10 -39 4 -19 8 -39 10 -45 2 -5 7 -23 11 -40 5 -16 19 -41 31 -54 13 -14 23
-34 23 -46 -1 -23 8 -65 15 -72 3 -3 1 -16 -4 -29 -6 -15 -6 -24 0 -24 6 0 8
-13 5 -30 -4 -22 -1 -32 10 -36 8 -3 12 -10 9 -15 -3 -5 1 -9 8 -9 8 0 6 -5
-4 -11 -10 -5 -18 -15 -18 -20 0 -6 6 -7 13 -3 8 5 7 2 -2 -10 -12 -15 -12
-19 7 -32 15 -11 22 -26 22 -50 0 -19 4 -34 8 -34 4 0 9 -17 9 -37 2 -51 6
-68 22 -87 10 -12 11 -16 1 -16 -8 0 -10 -9 -5 -27 3 -16 8 -44 9 -64 1 -19 7
-42 12 -50 10 -16 12 -69 3 -69 -5 0 -4 -41 1 -47 2 -2 3 -6 4 -10 1 -5 4 -12
7 -18 4 -5 9 -23 13 -40 4 -16 13 -33 19 -37 9 -6 9 -8 1 -8 -9 0 -9 -10 -2
-37 5 -21 11 -49 13 -63 1 -14 4 -27 5 -30 1 -3 2 -8 1 -12 0 -5 4 -8 11 -8 6
0 8 -3 5 -6 -3 -4 -1 -16 5 -28 17 -29 19 -48 7 -62 -7 -8 -7 -14 0 -18 13 -8
10 -129 -3 -138 -5 -3 -10 -28 -11 -55 -1 -26 -5 -55 -8 -63 -8 -20 -14 -119
-6 -115 3 2 5 -12 5 -30 -1 -19 -4 -35 -8 -35 -4 0 -6 -12 -5 -28 2 -15 -3
-33 -10 -40 -7 -7 -10 -19 -6 -28 3 -9 -6 -27 -22 -44 -53 -57 -65 -70 -65
-75 0 -3 0 -9 0 -15 0 -5 -6 -10 -12 -10 -7 0 -24 -12 -37 -25 -13 -14 -33
-25 -46 -25 -12 0 -28 -6 -34 -14 -9 -11 -18 -12 -41 -3 -30 11 -32 15 -34 72
-1 17 -9 45 -19 64 -10 18 -14 30 -8 27 18 -11 13 9 -8 33 -11 12 -18 32 -15
44 2 11 -2 25 -9 30 -9 7 -9 10 0 14 10 3 9 12 -2 39 -8 19 -12 34 -10 34 3 0
-4 16 -15 36 -11 19 -16 33 -10 29 13 -8 13 1 -1 27 -8 15 -8 19 1 13 8 -5 10
5 6 34 -2 22 0 43 5 47 5 3 6 11 2 17 -12 19 -11 80 1 96 9 12 8 13 -3 7 -8
-6 -7 0 4 18 10 14 13 26 8 26 -12 0 -14 38 -2 45 5 4 7 11 3 16 -3 5 2 22 12
36 12 18 13 28 6 31 -9 3 -9 9 -2 23 6 10 8 19 4 19 -3 0 -1 6 5 14 10 11 8
17 -6 25 -14 8 -15 11 -3 11 12 1 12 3 -2 14 -10 7 -19 22 -21 34 -3 23 -43
62 -63 62 -7 0 -16 9 -19 20 -4 12 -24 32 -46 47 -21 14 -39 33 -40 42 0 12
-2 11 -9 -4 -5 -11 -9 -15 -9 -9 -1 6 -7 11 -13 12 -48 4 -94 24 -119 54 -15
18 -28 29 -29 23 0 -5 -4 -4 -9 4 -8 12 -19 8 -63 -22 -29 -20 -59 -37 -67
-37 -14 0 -97 -70 -84 -70 5 -1 -1 -8 -12 -18 -40 -33 -83 -106 -75 -127 8
-23 -8 -55 -24 -49 -6 2 -12 -7 -12 -20 -1 -14 -11 -37 -22 -51 -12 -15 -18
-33 -15 -41 3 -8 0 -14 -5 -14 -9 0 -23 -27 -27 -50 0 -3 -7 -16 -15 -30 -7
-14 -14 -38 -15 -53 -1 -16 -7 -32 -15 -37 -7 -4 -10 -15 -7 -23 3 -8 3 -18
-1 -21 -6 -7 -10 -19 -14 -51 -2 -11 -15 -33 -30 -50 -22 -24 -25 -32 -15 -44
9 -12 9 -13 0 -7 -7 4 -13 2 -13 -3 0 -6 6 -11 13 -11 8 0 8 -3 -2 -9 -9 -6
-11 -16 -6 -27 13 -34 17 -84 6 -84 -6 0 -11 -8 -11 -19 0 -22 -25 -45 -39
-37 -5 4 -12 -3 -16 -14 -3 -11 -9 -19 -13 -18 -4 1 -16 -1 -27 -5 -16 -5 -20
-16 -21 -53 -1 -28 -10 -57 -21 -73 -22 -30 -31 -111 -11 -111 6 0 4 -6 -7
-13 -10 -8 -15 -19 -11 -25 4 -7 3 -12 -1 -12 -5 0 -9 -11 -9 -25 0 -15 6 -25
15 -25 11 0 10 -3 -4 -14 -11 -8 -16 -20 -12 -29 3 -9 2 -19 -4 -22 -13 -9 -7
-37 10 -51 11 -9 12 -12 1 -19 -9 -6 -11 -4 -5 5 5 8 4 11 -2 7 -5 -3 -9 -16
-7 -29 1 -13 3 -27 3 -31 1 -5 5 -6 10 -3 16 10 20 -23 5 -39 -8 -8 -13 -19
-9 -25 3 -5 -3 -18 -15 -30 -22 -22 -26 -35 -7 -24 9 6 9 4 0 -7 -17 -17 -17
-32 0 -23 9 5 9 4 0 -6 -9 -10 -9 -18 -1 -34 6 -12 11 -22 10 -23 -1 -2 -1 -5
-1 -8 1 -3 2 -13 3 -22 1 -10 5 -24 9 -30 5 -8 4 -13 -2 -13 -6 0 -11 -9 -11
-20 0 -11 -4 -20 -9 -20 -6 0 -5 -14 0 -35 6 -19 7 -41 2 -48 -4 -6 -9 -20
-10 -29 -2 -10 -12 -34 -22 -54 -14 -25 -17 -43 -11 -58 5 -14 3 -28 -6 -40
-7 -11 -11 -23 -8 -27 3 -5 0 -9 -5 -9 -6 0 -11 -5 -11 -11 0 -5 3 -8 8 -6 4
3 6 -12 6 -34 -1 -21 2 -42 7 -45 14 -8 11 -26 -3 -18 -10 6 -10 4 -1 -7 16
-16 17 -30 2 -27 -6 2 -13 -5 -14 -15 -2 -9 1 -17 6 -17 6 0 7 -4 4 -10 -3 -5
-1 -10 4 -10 6 0 11 -11 11 -24 0 -14 5 -28 10 -31 8 -5 7 -12 -2 -23 -11 -13
-11 -15 2 -7 12 6 12 5 3 -5 -8 -9 -6 -17 9 -32 17 -17 18 -22 7 -29 -11 -7
-11 -9 -1 -9 7 0 10 -4 7 -10 -3 -5 -1 -10 4 -10 6 0 11 -8 11 -18 0 -10 6
-24 13 -31 9 -11 9 -12 0 -7 -9 5 -11 2 -7 -8 3 -9 10 -16 14 -16 5 0 7 -9 5
-20 -2 -11 0 -22 4 -25 5 -2 7 -16 6 -30 -2 -14 0 -25 4 -25 4 0 8 -14 9 -31
1 -17 10 -42 19 -56 10 -14 19 -35 20 -46 2 -11 8 -26 14 -34 6 -7 8 -13 4
-13 -4 0 0 -11 9 -24 10 -16 12 -27 5 -31 -6 -5 -6 -12 3 -23 10 -12 10 -14 0
-8 -11 6 -18 -18 -13 -46 0 -5 -3 -8 -8 -8 -11 0 -20 -47 -25 -128 -2 -40 -9
-69 -20 -81 -19 -21 -21 -35 -4 -25 10 6 10 5 1 -7 -6 -8 -13 -18 -15 -24 -1
-5 -6 -9 -10 -8 -7 3 8 -56 17 -65 3 -3 5 1 5 9 1 10 3 10 10 -3 6 -10 18 -14
31 -11 16 4 17 8 7 14 -9 6 -9 9 -1 9 6 0 18 -8 25 -18 8 -11 29 -19 56 -21
36 -2 43 1 51 21 6 13 10 16 11 8 0 -13 1 -13 10 0 5 8 10 10 10 4 0 -41 110
-3 110 38 0 10 2 10 9 -1 7 -11 9 -11 14 0 4 10 6 10 6 2 1 -7 8 -13 17 -13 8
0 13 3 11 8 -3 4 6 7 19 7 13 0 24 -3 24 -7 0 -5 5 -8 11 -8 5 0 8 4 5 8 -2 4
4 8 15 8 10 0 19 -5 19 -11 0 -5 7 -1 15 9 15 19 15 19 15 -2 0 -15 8 -24 25
-28 14 -3 25 -10 25 -16 0 -5 4 -7 9 -3 5 3 12 1 16 -5 4 -6 11 -8 16 -5 5 4
9 2 9 -3 0 -5 18 -9 40 -9 21 0 37 4 35 8 -10 14 20 16 31 1 9 -12 13 -12 19
-2 5 9 4 11 -3 6 -18 -11 -14 0 5 15 14 12 16 12 8 0 -6 -11 -4 -13 10 -7 15
5 16 4 5 -9 -10 -12 -9 -15 6 -16 41 -1 60 -9 76 -30 10 -11 18 -17 18 -13 0
5 5 2 10 -6 8 -12 10 -12 10 5 0 14 3 16 8 7 5 -8 16 -10 27 -6 14 6 16 4 10
-7 -6 -11 -5 -11 4 -3 10 9 19 8 39 -2 15 -8 35 -11 46 -8 13 4 16 3 11 -6 -6
-9 0 -12 23 -8 17 2 29 1 26 -4 -3 -4 2 -8 11 -8 10 0 13 5 9 12 -5 7 -3 8 7
2 8 -5 22 -7 32 -6 9 2 17 -2 17 -9 0 -8 4 -8 15 1 12 10 15 10 15 -1 0 -10 3
-10 12 -1 8 8 17 6 36 -9 14 -11 28 -16 31 -12 9 12 31 14 31 4 0 -5 14 -8 31
-7 16 1 32 -1 35 -6 13 -20 73 -37 127 -34 31 2 60 5 63 8 3 3 26 -5 51 -18
26 -13 50 -21 54 -18 5 3 22 -2 39 -11 16 -8 30 -12 30 -8 0 5 4 2 8 -5 7 -10
16 -9 47 4 22 9 41 12 43 6 3 -11 51 -4 71 12 11 8 13 8 7 -1 -7 -13 7 -18 29
-13 6 2 18 2 27 2 10 0 20 3 23 8 3 5 18 -4 33 -21 21 -23 37 -31 70 -33 23
-2 42 2 42 7 0 6 3 7 7 4 3 -4 17 3 30 15 13 12 23 17 23 12 0 -5 5 -2 10 6 5
8 10 10 10 4 0 -7 11 -9 25 -6 17 3 25 0 25 -9 0 -11 2 -11 10 1 7 10 10 11
10 2 0 -13 26 -11 72 7 20 7 27 7 31 -3 3 -8 22 -14 47 -14 23 -1 45 -3 48 -6
3 -3 12 0 20 7 13 10 14 9 7 -3 -6 -11 -5 -12 4 -4 13 12 64 6 56 -6 -3 -5 8
-2 25 6 16 9 30 20 30 25 0 5 9 9 20 9 11 0 20 4 20 9 0 5 8 8 18 6 9 -1 23 3
31 9 10 8 13 8 8 0 -3 -6 5 -17 18 -24 14 -7 25 -19 25 -27 0 -17 30 -16 54 2
10 8 23 12 27 9 5 -3 9 -1 9 5 0 6 6 8 14 5 8 -3 17 -1 21 5 4 7 15 5 32 -6
31 -20 63 -27 63 -13 0 6 7 10 16 10 8 0 13 -4 10 -9 -6 -9 53 1 72 13 6 3 13
0 15 -6 4 -10 6 -10 6 0 1 6 6 12 12 12 5 0 8 -4 5 -8 -3 -5 1 -9 9 -9 8 0 15
3 15 7 0 9 71 44 90 44 8 0 18 5 22 11 5 6 8 2 8 -9 0 -15 3 -16 14 -7 10 9
16 9 21 1 5 -8 13 -6 26 6 10 9 19 13 19 8 0 -5 6 2 13 15 11 23 67 40 67 21
0 -9 26 -7 36 3 12 12 26 8 18 -5 -5 -9 -2 -9 9 1 9 7 17 10 17 7 0 -4 7 -1
15 7 8 8 30 25 50 37 19 12 35 26 35 31 0 5 7 9 15 9 8 0 15 4 15 9 0 5 9 13
21 16 11 4 18 9 15 12 -7 7 17 32 27 26 4 -2 7 1 7 6 0 6 -5 11 -11 11 -6 0
-3 7 5 16 9 8 14 20 11 25 -4 5 -1 9 6 9 7 0 10 3 6 6 -3 4 -1 18 6 33 7 14
12 43 12 64 0 20 2 37 5 37 3 0 5 28 5 63 -1 45 -4 61 -14 59 -8 -2 -10 2 -4
10 11 18 12 78 2 78 -5 0 -9 4 -9 10 0 10 -9 23 -54 72 -14 16 -22 28 -19 28
11 0 -50 56 -75 69 -12 7 -26 9 -31 6 -5 -3 -20 8 -33 23 -13 16 -28 27 -34
25 -9 -3 -56 30 -96 70 -18 17 -16 43 3 32 5 -4 9 -2 9 3 0 12 51 36 71 33 9
-1 21 5 28 13 10 12 18 11 54 -8 25 -14 54 -21 72 -19 76 9 91 8 108 -5 9 -8
17 -21 17 -29 0 -7 5 -14 10 -14 6 -1 14 -2 19 -3 5 0 13 -4 17 -8 4 -4 13 0
21 10 8 9 12 11 8 5 -3 -7 -2 -13 4 -13 5 0 12 6 14 13 4 9 6 9 6 0 1 -7 11
-17 22 -24 15 -8 19 -8 15 0 -4 6 -2 11 3 11 6 0 11 -4 11 -10 0 -5 9 -10 21
-10 13 0 18 -4 13 -12 -4 -7 1 -6 12 3 10 9 25 14 33 11 9 -3 11 0 6 8 -5 8
-4 11 3 6 6 -3 23 -8 39 -11 15 -2 35 -5 43 -7 25 -6 60 -32 60 -44 0 -7 15
-12 36 -12 29 0 34 3 30 17 -4 9 3 5 14 -9 11 -14 20 -20 20 -13 0 6 9 9 22 5
14 -3 19 -1 14 6 -5 8 -2 10 9 6 14 -6 14 -7 0 -18 -13 -9 -10 -11 15 -11 16
0 30 5 30 10 0 6 5 3 10 -5 5 -8 10 -11 10 -6 0 5 7 3 15 -4 12 -10 15 -10 15
0 0 7 7 10 15 6 8 -3 15 0 15 7 0 8 4 6 10 -3 5 -8 10 -11 10 -6 0 5 8 2 17
-5 10 -9 14 -9 10 -2 -5 8 4 7 29 -3 47 -20 124 -28 124 -13 0 8 4 8 13 2 6
-6 20 -9 30 -8 9 2 17 -1 17 -6 0 -6 5 -7 12 -3 17 11 78 13 78 3 0 -5 9 -9
19 -9 11 0 23 -5 26 -11 4 -6 13 -8 21 -5 8 3 14 0 15 -7 0 -7 4 -3 9 8 5 11
9 14 9 7 1 -9 7 -8 25 4 32 20 59 24 68 10 5 -7 8 -6 8 4 0 13 1 13 10 0 5 -8
14 -16 20 -16 5 -1 15 -2 20 -3 6 0 10 -9 10 -18 0 -10 4 -14 8 -8 8 11 38 12
62 2 8 -3 24 -7 35 -9 11 -2 22 -6 25 -10 8 -11 69 -17 72 -7 5 14 56 21 63 9
3 -5 13 -10 21 -10 11 0 14 7 10 23 -3 12 -3 16 0 9 3 -6 10 -10 14 -7 5 3 7
-3 6 -12 -3 -16 3 -18 43 -17 25 1 52 -3 58 -8 7 -6 19 -8 27 -5 8 3 17 1 20
-6 3 -9 5 -8 5 1 1 7 6 10 11 7 6 -4 18 -1 26 6 8 7 14 8 13 3 -4 -21 2 -26
18 -13 11 10 14 10 9 2 -11 -19 4 -16 27 5 11 9 17 12 14 6 -9 -16 28 -25 42
-11 6 6 11 7 11 1 0 -5 27 -9 60 -9 33 1 60 -3 60 -8 0 -6 17 -7 38 -3 20 4
53 9 72 12 19 3 37 9 39 15 1 5 9 2 16 -8 13 -17 15 -17 45 5 17 13 34 21 37
18 4 -3 1 -6 -6 -6 -7 0 -9 -5 -5 -12 4 -6 3 -8 -3 -5 -6 4 -17 -1 -24 -10 -8
-9 -9 -14 -2 -10 6 4 14 1 16 -5 4 -10 6 -10 6 0 1 7 5 11 10 7 5 -3 12 4 16
15 3 11 11 20 16 20 6 0 7 -5 3 -12 -5 -8 -2 -9 10 -5 9 4 15 3 11 -2 -8 -14
5 -41 21 -41 7 0 17 7 22 16 8 14 13 14 32 4 21 -11 22 -10 16 6 -6 15 -1 13
19 -6 17 -16 25 -20 23 -10 -2 11 4 14 22 11 41 -7 173 -1 164 8 -5 5 28 30
41 31 6 0 3 -5 -5 -11 -13 -9 -13 -10 0 -6 8 2 15 11 14 18 -1 8 6 21 14 28
12 12 13 11 7 -10 -7 -23 -7 -23 8 -4 11 14 12 24 5 33 -8 9 -7 11 3 7 16 -6
81 26 81 40 0 6 6 14 14 18 8 5 12 12 9 17 -3 5 0 12 6 16 8 4 7 9 -2 15 -10
7 -11 11 -3 17 7 4 13 28 15 54 2 25 3 45 1 43 -8 -8 -60 53 -66 77 -4 18 -11
25 -20 22 -8 -3 -17 0 -22 7 -4 8 -3 10 4 5 20 -12 13 6 -11 28 -12 12 -31 20
-41 18 -13 -3 -16 0 -11 9 6 8 4 11 -7 7 -8 -4 -21 2 -29 13 -7 10 -21 19 -30
19 -9 0 -20 7 -23 16 -3 8 -10 13 -14 10 -4 -3 -16 6 -26 19 -10 14 -23 22
-28 19 -4 -3 -8 -2 -7 3 4 22 -2 32 -16 27 -8 -4 -15 -2 -15 2 0 5 -11 22 -25
38 -14 16 -25 33 -25 38 0 4 -7 8 -15 8 -8 0 -15 8 -15 18 0 13 -2 14 -9 4 -7
-11 -9 -11 -14 1 -7 18 -55 28 -61 13 -2 -6 -5 -3 -5 6 -1 14 -5 16 -26 8 -18
-7 -24 -6 -22 3 1 7 -6 11 -15 9 -10 -2 -18 2 -18 8 0 6 -8 10 -17 9 -32 -3
-44 1 -38 11 4 6 -5 10 -20 10 -14 0 -40 6 -58 13 -18 7 -51 12 -74 11 -23 0
-40 3 -37 7 3 5 -9 9 -26 9 -21 0 -29 -4 -24 -12 5 -7 3 -8 -7 -2 -16 10 -27
12 -89 18 -52 5 -74 10 -113 25 -35 14 -40 14 -32 1 3 -5 -3 -10 -15 -10 -11
0 -23 6 -26 13 -3 8 -24 14 -57 14 -28 1 -53 6 -55 12 -2 5 -15 7 -28 5 -19
-3 -24 -1 -18 8 6 10 5 10 -8 0 -11 -8 -18 -9 -23 -3 -3 6 -19 9 -35 7 -28 -3
-86 25 -74 37 3 3 -2 4 -13 3 -10 -2 -26 5 -37 16 -10 11 -24 17 -32 14 -8 -3
-13 -2 -12 2 2 4 -14 25 -34 46 -20 22 -35 44 -32 48 3 4 1 8 -4 8 -4 0 -14
16 -22 35 -7 19 -21 37 -31 40 -16 5 -28 29 -33 67 -2 9 2 14 7 11 6 -4 8 0 4
10 -4 11 3 23 21 37 15 11 32 23 37 28 16 13 49 25 63 23 7 -1 25 7 41 18 19
14 31 17 38 10 6 -6 27 -11 47 -11 24 0 34 -4 29 -11 -4 -7 1 -6 10 2 9 7 23
11 30 8 8 -3 20 -1 27 3 8 5 18 6 23 3 6 -3 26 -7 46 -7 20 -1 47 -9 61 -19
16 -10 30 -13 39 -8 8 5 24 3 39 -5 14 -7 29 -11 34 -8 4 3 8 -1 8 -8 0 -9 3
-9 10 2 5 8 10 10 10 4 0 -6 13 -11 30 -12 16 0 35 -4 42 -8 11 -7 51 -15 86
-17 6 0 12 -5 12 -10 0 -5 11 -7 25 -5 14 3 28 2 31 -3 3 -5 18 -7 34 -5 17 2
30 0 30 -4 0 -3 16 -11 35 -17 19 -6 33 -7 30 -3 -3 5 3 7 12 5 10 -2 18 -4
18 -5 0 -2 38 -11 53 -12 6 -1 12 -5 12 -9 0 -11 70 -16 70 -4 0 5 5 3 10 -6
7 -12 22 -16 55 -15 25 1 45 -2 45 -7 0 -4 5 -5 10 -2 6 3 10 2 10 -3 0 -6 7
-13 16 -16 8 -3 12 -2 9 4 -16 26 39 -5 82 -46 8 -7 39 -11 79 -10 47 2 67 -1
71 -11 3 -7 9 -13 15 -13 5 0 6 6 3 13 -4 6 -1 5 7 -4 14 -16 112 -54 103 -39
-3 4 4 6 15 3 11 -3 17 -9 14 -14 -3 -5 2 -6 10 -3 9 3 16 1 16 -6 0 -6 4 -8
10 -5 5 3 18 2 28 -4 11 -6 24 -6 36 1 14 8 17 7 12 -1 -4 -6 0 -11 9 -11 9 0
14 4 11 8 -3 5 8 6 25 4 16 -2 29 -8 29 -14 0 -9 59 -34 73 -30 4 1 7 -2 7 -7
0 -13 51 -31 105 -35 11 -1 26 -6 34 -10 8 -5 28 -10 45 -11 17 -1 44 -7 59
-14 16 -6 33 -8 38 -5 6 3 16 1 24 -6 9 -7 15 -8 19 -1 4 6 15 7 29 2 13 -5
30 -5 39 0 11 6 19 5 23 -1 5 -8 12 -7 23 2 12 10 14 10 8 0 -6 -11 11 -17 37
-13 4 0 7 -3 7 -8 0 -11 19 -9 39 3 11 7 12 6 6 -5 -8 -12 -6 -12 8 -1 9 8 21
11 27 7 5 -3 10 0 10 7 1 8 6 6 15 -6 11 -14 28 -19 69 -20 30 0 52 -5 49 -10
-3 -5 0 -7 8 -4 8 3 20 -1 27 -9 16 -16 58 -17 68 -2 4 8 9 7 15 -2 5 -8 9 -9
9 -3 0 6 19 10 46 10 25 -1 47 2 49 5 2 3 36 4 75 4 39 -1 73 2 76 7 3 4 10 6
15 2 5 -3 16 0 24 6 10 9 15 9 15 1 0 -7 8 -8 25 -1 14 5 25 7 25 4 0 -4 8 0
17 7 14 12 16 12 9 0 -6 -9 -5 -12 5 -9 8 3 24 1 37 -3 13 -5 22 -5 22 1 0 6
7 10 15 10 14 0 20 13 15 35 -1 6 2 7 6 3 3 -4 18 1 32 12 13 11 28 17 33 14
5 -3 9 0 9 6 0 7 6 10 13 7 6 -2 26 6 43 19 17 12 43 26 58 30 19 4 28 16 36
43 5 21 21 48 35 61 14 13 25 29 25 37 0 7 5 13 10 13 7 0 7 6 1 18 -7 13 -7
22 1 30 8 8 7 13 -4 17 -12 5 -15 16 -12 41 3 22 0 34 -8 34 -6 0 -8 3 -5 7
13 12 -131 172 -155 173 -5 0 -8 8 -8 17 0 9 -3 14 -6 11 -6 -7 -74 53 -74 64
0 14 36 45 56 47 10 1 40 3 66 3 26 1 45 5 43 8 -3 4 6 5 19 3 13 -3 27 0 31
7 5 8 10 8 21 -1 11 -9 14 -8 14 2 0 9 4 8 13 -3 6 -9 19 -18 27 -19 25 -4
111 13 139 27 33 17 55 18 45 2 -6 -10 -4 -10 8 0 13 10 18 10 24 1 5 -8 3 -9
-6 -4 -9 5 -11 4 -6 -4 4 -6 13 -8 19 -4 7 4 19 8 27 9 30 2 70 16 65 24 -7
11 30 19 46 10 18 -10 71 -1 63 11 -3 5 2 6 10 3 11 -4 16 0 16 10 0 9 6 17
13 18 6 0 17 2 22 3 6 2 15 3 20 4 6 0 12 10 13 21 4 43 6 50 14 50 5 0 5 7 0
16 -5 9 -7 26 -4 37 3 13 1 18 -5 14 -16 -10 -21 71 -6 100 15 28 17 53 5 53
-4 0 -8 10 -9 22 -1 11 -8 25 -15 29 -10 7 -10 9 2 9 10 0 11 3 3 11 -6 6 -9
17 -7 23 3 7 -4 21 -16 31 -11 10 -20 25 -20 33 0 9 -3 12 -6 9 -4 -3 -16 -1
-27 5 -17 9 -19 8 -13 -7 5 -15 4 -16 -9 -5 -8 7 -15 10 -15 6 0 -4 -12 2 -27
11 -21 14 -25 15 -18 3 8 -13 6 -13 -8 -2 -18 15 -117 13 -129 -2 -3 -5 -19
-9 -35 -8 -32 1 -86 26 -76 35 3 4 -17 7 -45 7 -33 0 -56 6 -66 16 -9 8 -16
11 -16 6 0 -6 -9 -8 -20 -5 -11 3 -20 9 -20 13 0 4 -12 6 -27 6 -16 -1 -33 2
-40 7 -6 4 -14 3 -18 -3 -4 -7 -13 -5 -28 5 -24 17 -67 20 -67 5 0 -5 -9 -10
-21 -10 -13 0 -18 -4 -13 -12 4 -7 -2 -5 -14 5 -11 11 -25 16 -31 13 -5 -3
-12 0 -14 6 -4 10 -6 10 -6 1 -2 -23 -62 -7 -82 21 -4 4 -10 3 -13 -3 -4 -6
-13 -8 -19 -4 -17 10 -39 13 -51 6 -15 -10 -56 -10 -56 0 0 4 -8 7 -17 5 -10
-1 -25 2 -33 7 -8 5 -42 11 -75 12 -33 1 -65 5 -72 7 -7 3 -13 0 -13 -7 0 -8
-3 -7 -9 2 -7 12 -13 12 -24 3 -7 -7 -17 -9 -21 -5 -9 9 -117 3 -138 -8 -10
-6 -18 -6 -18 -1 0 15 -76 8 -96 -8 -11 -9 -15 -10 -10 -2 4 6 3 12 -3 12 -5
0 -13 -5 -16 -11 -4 -6 -13 -8 -20 -5 -7 2 -17 0 -23 -6 -6 -6 -12 -6 -16 0
-4 7 -17 7 -38 2 -17 -5 -36 -6 -42 -3 -15 10 -57 13 -52 4 5 -8 -31 -7 -75 3
-20 5 -31 0 -44 -18 -19 -25 -45 -25 -45 1 0 8 -4 12 -9 8 -5 -3 -12 3 -15 12
-3 10 -15 24 -26 30 -17 11 -18 10 -13 -5 6 -15 5 -15 -10 -3 -9 7 -17 10 -17
7 0 -4 -7 0 -17 9 -9 10 -26 15 -39 12 -13 -2 -21 0 -18 4 3 5 -10 10 -28 11
-46 2 -51 3 -65 11 -6 4 -14 1 -16 -5 -4 -10 -6 -10 -6 0 -1 6 -8 12 -16 12
-8 0 -15 5 -15 10 0 6 -12 10 -26 10 -14 0 -23 4 -19 10 4 6 -5 10 -19 10 -14
0 -26 5 -26 11 0 5 -4 7 -10 4 -5 -3 -10 -1 -10 6 0 7 -3 10 -6 6 -8 -7 -54
38 -54 53 0 6 6 8 13 4 6 -4 3 3 -7 15 -26 29 -28 46 -6 66 23 20 53 26 62 11
5 -8 8 -7 8 2 0 7 5 10 11 7 6 -4 17 2 24 12 9 13 25 20 42 19 15 -1 33 2 38
7 30 23 86 56 104 62 12 3 21 10 21 14 0 4 7 8 15 9 8 1 22 3 30 4 9 1 27 12
41 24 13 13 27 24 29 24 3 0 5 3 6 8 1 10 25 23 56 28 14 3 39 12 54 20 16 8
29 12 29 10 0 -3 16 6 36 19 29 20 40 22 51 14 7 -7 16 -9 20 -6 3 4 12 2 19
-4 8 -7 32 -9 59 -6 36 5 45 3 45 -9 0 -9 5 -12 11 -8 6 3 15 0 20 -7 7 -11 9
-11 9 -1 0 7 5 10 10 7 6 -4 23 -9 38 -12 15 -3 34 -6 42 -8 8 -1 14 -7 13
-13 -1 -5 11 -9 27 -8 17 1 30 -2 30 -7 0 -4 4 -6 9 -2 6 3 26 -4 45 -15 45
-25 86 -33 86 -17 0 8 3 9 8 1 4 -6 20 -10 35 -9 15 1 30 -2 33 -6 2 -5 19 0
37 10 39 22 133 29 121 9 -6 -10 -4 -10 9 1 11 9 17 10 17 2 0 -6 7 -11 16
-11 8 0 23 -7 31 -16 9 -8 24 -13 34 -11 11 3 19 0 19 -5 0 -6 7 -5 16 2 12
11 15 11 12 0 -2 -8 7 -14 22 -14 14 -1 30 -4 36 -8 6 -4 14 -4 18 -1 10 11
56 11 56 1 0 -5 6 -6 12 -1 23 14 48 13 71 -1 24 -16 87 -19 87 -3 0 5 7 7 15
3 17 -6 20 4 5 22 -7 9 -7 9 2 2 7 -6 20 -10 30 -10 10 0 18 -5 18 -11 0 -8 4
-8 14 0 10 9 16 9 21 1 4 -7 11 -8 18 -1 16 13 79 17 96 7 10 -7 12 -5 6 4 -6
10 -4 12 8 7 12 -4 17 -1 17 9 0 11 5 14 18 9 37 -15 50 -16 63 -3 16 15 28
16 48 4 11 -7 12 -6 6 5 -7 11 -6 12 7 2 8 -7 18 -10 22 -6 10 10 46 11 46 1
0 -5 5 -6 12 -2 6 4 24 8 40 9 16 2 37 10 46 18 9 9 19 15 22 15 12 -3 110 34
116 43 3 5 10 7 15 4 5 -4 16 1 25 9 12 12 12 16 2 16 -8 1 -6 6 6 15 14 11
23 12 32 4 16 -13 48 13 42 33 -3 7 8 26 24 43 31 33 34 44 16 65 -10 11 -9
11 6 0 18 -14 19 -13 12 15 -7 29 -7 29 8 10 13 -16 15 -17 10 -2 -3 9 -1 24
6 32 9 11 9 15 1 15 -7 0 -11 8 -9 18 2 9 -2 16 -8 15 -7 -1 -11 5 -10 14 0
10 -11 23 -26 30 -15 8 -34 31 -44 53 -10 21 -22 36 -27 33 -6 -3 -7 -1 -3 6
4 6 12 9 17 5 5 -3 17 0 26 8 14 11 16 11 9 -1 -6 -9 0 -8 17 4 16 10 34 14
48 10 12 -4 19 -3 16 1 -3 5 8 9 24 9 16 0 29 -3 29 -8 0 -4 11 0 25 9 20 13
25 13 25 3 0 -11 2 -11 10 1 5 8 12 11 16 7 4 -4 13 -2 21 4 8 7 13 8 13 1 0
-5 25 3 55 19 30 16 57 29 60 29 3 0 21 6 40 14 20 9 38 15 40 15 12 0 65 36
65 43 0 4 6 8 14 8 7 0 20 7 27 16 8 9 32 25 54 34 29 12 41 24 42 40 1 12 11
30 22 39 14 12 17 21 10 28 -6 6 -11 40 -10 77 0 44 -4 70 -14 80 -11 11 -12
16 -2 19 7 3 5 6 -5 6 -11 1 -15 6 -12 15 6 16 -77 106 -97 106 -7 0 -10 3 -6
6 3 3 -3 16 -14 28 -12 11 -27 33 -35 48 -19 36 -63 80 -74 73 -5 -3 -15 2
-23 10 -9 8 -20 15 -26 15 -6 0 -11 4 -11 8 0 5 -12 14 -26 20 -20 10 -24 10
-18 0 6 -10 4 -11 -7 0 -7 6 -19 12 -27 12 -7 0 -20 7 -28 15 -10 9 -25 12
-44 8 -19 -3 -30 -1 -30 6 0 6 -7 11 -16 11 -9 0 -23 8 -30 18 -9 11 -13 12
-14 4 0 -9 -5 -10 -17 -4 -19 10 -75 8 -91 -2 -6 -3 -16 -1 -24 6 -7 7 -24 15
-38 17 -14 1 -33 7 -43 13 -12 6 -23 6 -33 -3 -8 -6 -14 -7 -14 -2 0 5 -18 9
-41 9 -22 -1 -43 2 -46 7 -2 4 -10 4 -16 -1 -13 -10 -46 -10 -63 0 -5 4 -16 3
-24 -3 -20 -12 -33 -11 -24 2 3 6 -6 3 -22 -7 -15 -11 -25 -13 -21 -7 8 13 5
13 -86 -2 -16 -3 -26 -1 -22 5 3 5 -4 7 -15 4 -11 -2 -29 -6 -40 -8 -11 -3
-25 -8 -32 -12 -7 -5 -8 -3 -3 6 6 10 3 12 -13 8 -12 -4 -22 -2 -22 2 0 11
-43 -1 -52 -14 -5 -7 -8 -7 -8 -1 0 10 -70 12 -87 2 -5 -3 -15 -2 -23 3 -8 5
-27 3 -47 -5 -39 -16 -44 -17 -60 -3 -9 8 -13 7 -13 -3 0 -11 -2 -11 -10 1 -9
13 -10 13 -10 0 -1 -12 -3 -11 -11 3 -6 10 -8 25 -5 33 3 8 1 14 -4 14 -6 0
-10 -4 -10 -8 0 -15 -42 -6 -52 11 -5 10 -13 15 -19 12 -5 -3 -6 1 -3 9 3 9 2
16 -3 16 -5 0 -10 6 -10 13 -2 28 -11 73 -18 91 -4 10 -4 21 1 25 10 7 34 70
34 90 0 7 7 20 16 28 8 9 13 24 11 35 -3 10 -2 17 1 15 4 -2 17 7 29 20 12 13
20 23 16 23 -3 0 0 7 7 15 6 8 9 19 5 25 -4 6 -2 9 2 8 12 -4 77 61 70 69 -3
3 1 12 9 20 8 8 12 19 9 24 -4 5 1 9 9 9 9 0 16 5 16 12 0 6 3 9 6 5 4 -3 31
14 60 38 30 24 63 47 74 50 10 3 35 21 56 40 78 71 136 115 155 115 5 0 20 6
32 14 12 8 46 20 75 27 28 7 52 17 52 23 0 5 3 7 6 3 3 -3 23 4 43 17 43 27
97 47 105 39 3 -4 6 -1 6 5 0 6 7 9 15 6 8 -4 15 -1 15 5 0 6 5 11 11 11 5 0
7 -5 3 -12 -5 -7 -3 -8 7 -2 8 5 21 9 29 9 28 2 65 18 92 40 17 15 37 22 58
20 16 -1 33 1 36 6 3 5 11 6 17 2 21 -13 38 -12 44 3 3 8 11 14 19 14 7 0 17
6 21 13 4 7 24 24 43 37 19 14 46 35 60 48 14 12 40 32 59 44 49 31 123 106
116 118 -3 5 -2 10 3 10 14 0 8 44 -8 58 -13 11 -13 11 1 7 22 -8 18 21 -11
73 -22 38 -31 47 -52 43 -5 0 -8 5 -8 12 0 8 -4 7 -10 -3 -6 -9 -10 -10 -10
-3 0 7 -12 10 -30 8 -17 -2 -29 -1 -26 3 2 4 -17 7 -42 6 -86 -1 -92 -3 -86
-21 5 -17 5 -17 -6 -1 -6 10 -17 15 -27 11 -12 -5 -14 -3 -8 8 7 11 5 11 -10
-1 -11 -9 -16 -10 -11 -2 8 14 -3 16 -24 2 -9 -5 -17 -5 -20 1 -4 5 -27 10
-53 12 -33 1 -46 6 -42 14 2 7 -5 17 -16 23 -11 6 -17 15 -14 21 4 5 11 7 16
4 5 -4 9 -2 9 2 0 5 14 17 32 28 18 10 43 30 56 44 13 14 42 38 65 53 23 15
39 28 35 28 -9 0 85 87 138 127 22 18 53 35 68 39 16 4 31 17 36 30 5 13 14
24 20 24 6 0 8 5 5 10 -3 6 1 13 9 16 9 3 16 12 16 20 0 8 4 13 8 11 10 -3 78
50 106 82 12 13 32 35 46 50 14 14 25 28 25 33 0 4 7 13 15 20 26 22 56 62 40
53 -13 -8 -13 -7 0 10 8 11 23 27 33 37 10 10 15 23 12 27 -2 5 2 12 10 15 8
3 14 9 13 13 -3 13 24 63 34 63 5 0 6 5 3 10 -3 6 -2 10 2 10 9 0 11 9 15 68
2 17 6 32 10 32 4 0 5 7 2 15 -4 8 -10 12 -15 9 -5 -3 -6 2 -3 10 4 9 1 16 -6
16 -10 0 -10 3 0 15 9 11 10 15 1 15 -8 0 -10 8 -6 20 3 11 2 20 -4 20 -5 0
-12 13 -16 30 -4 16 -22 46 -41 67 -18 21 -34 44 -34 51 0 7 -4 10 -10 7 -5
-3 -10 -2 -10 3 0 7 -33 8 -50 2 -3 -1 -9 -2 -14 -1 -4 1 -15 -4 -24 -11 -13
-11 -14 -11 -8 0 7 11 4 12 -12 3 -12 -6 -23 -15 -27 -20 -3 -6 -14 -8 -25 -6
-11 2 -20 0 -20 -6 0 -15 -37 -10 -44 6 -3 8 -14 15 -24 15 -10 0 -23 5 -30
12 -9 9 -12 9 -12 -2 0 -7 -3 -11 -6 -7 -3 3 -18 1 -33 -5 -14 -5 -39 -12 -56
-15 -16 -3 -32 -8 -35 -11 -3 -4 -12 -9 -20 -11 -8 -2 -19 -4 -25 -6 -5 -1
-23 -7 -38 -13 -16 -7 -32 -12 -37 -12 -5 0 -10 -4 -12 -8 -5 -13 -67 -53 -88
-57 -22 -4 -108 -72 -138 -109 -9 -11 -37 -37 -62 -56 -25 -19 -52 -43 -60
-53 -15 -18 -56 -14 -44 4 3 5 -2 9 -10 9 -9 0 -16 5 -16 11 0 5 5 7 11 4 6
-4 5 2 -3 14 -7 12 -16 21 -20 21 -4 0 -5 7 -2 15 4 8 1 15 -5 15 -6 0 -10 3
-9 8 4 14 -13 52 -23 52 -6 0 -7 5 -4 10 3 6 1 10 -5 10 -6 0 -9 4 -6 9 3 5
-1 14 -9 21 -8 7 -13 16 -10 20 3 4 -2 10 -10 14 -8 3 -15 12 -15 21 0 12 -4
14 -19 5 -14 -7 -22 -7 -26 0 -4 7 -11 7 -18 2 -7 -5 -20 -8 -29 -7 -10 2 -18
-1 -18 -6 0 -5 -15 -15 -34 -23 -18 -8 -42 -21 -52 -29 -11 -9 -34 -28 -52
-42 -18 -15 -29 -32 -25 -38 3 -7 3 -9 -1 -5 -5 4 -23 -7 -41 -23 -18 -17 -41
-37 -51 -45 -11 -9 -12 -12 -4 -8 8 4 0 -8 -17 -26 -18 -18 -33 -37 -33 -42 0
-5 -11 -19 -24 -32 -14 -12 -26 -28 -28 -36 -2 -8 -11 -23 -20 -34 -10 -10
-15 -23 -12 -27 3 -5 -3 -20 -12 -34 -9 -14 -14 -25 -10 -25 3 0 -3 -9 -14
-20 -11 -11 -20 -27 -20 -35 0 -8 -7 -15 -15 -15 -9 0 -15 -9 -15 -25 0 -14
-5 -25 -12 -25 -6 0 -8 -3 -5 -6 3 -4 2 -16 -4 -27 -8 -14 -8 -18 0 -13 20 13
11 -4 -18 -31 -15 -16 -27 -36 -25 -46 1 -9 -1 -15 -6 -12 -10 6 -28 -44 -24
-68 1 -10 -4 -30 -12 -45 -8 -16 -10 -30 -4 -36 11 -11 -21 -43 -63 -65 -16
-9 -26 -20 -22 -28 2 -8 1 -12 -3 -10 -4 2 -17 -6 -30 -19 -12 -13 -18 -24
-12 -24 6 0 9 -4 6 -9 -4 -5 -17 -8 -31 -6 -14 1 -25 -2 -25 -7 0 -6 -6 -8
-13 -5 -15 5 -59 -27 -50 -37 4 -3 2 -6 -4 -6 -13 0 -33 -45 -33 -74 0 -13 -7
-29 -15 -36 -8 -7 -15 -9 -15 -6 0 4 -8 2 -18 -3 -13 -7 -23 -6 -31 2 -7 7
-11 8 -9 2 2 -5 -1 -12 -7 -14 -28 -12 -59 -66 -49 -83 4 -7 3 -8 -5 -4 -6 4
-14 0 -17 -8 -3 -9 -12 -16 -20 -16 -13 0 -18 -12 -15 -32 0 -4 -7 -9 -17 -12
-10 -3 -32 -30 -50 -58 -17 -29 -32 -50 -32 -45 0 4 -9 -2 -21 -14 -11 -11
-18 -23 -15 -26 8 -9 -47 -60 -159 -145 -58 -44 -137 -98 -145 -98 -6 0 -10
-5 -10 -11 0 -5 -4 -7 -10 -4 -5 3 -10 -1 -10 -10 0 -9 -4 -14 -9 -11 -12 8
-66 -12 -57 -21 7 -7 -52 -62 -68 -64 -6 -1 -23 -1 -38 -1 -15 -1 -25 -4 -23
-8 3 -4 -15 -18 -39 -31 -25 -13 -43 -26 -40 -30 2 -4 -9 -9 -25 -11 -25 -4
-28 -1 -29 24 0 15 3 28 8 28 4 0 10 9 13 20 3 11 9 19 14 18 12 -3 56 23 49
29 -3 4 -1 12 5 20 6 7 8 13 5 13 -4 0 -1 7 8 15 8 8 19 15 25 15 15 0 64 68
57 79 -4 6 3 15 14 21 11 6 20 17 20 25 0 8 5 15 11 15 6 0 9 7 6 14 -4 10 -1
13 7 10 12 -5 14 0 18 46 2 12 14 24 32 30 16 5 35 19 43 30 8 11 21 20 29 20
8 0 15 5 15 10 3 20 4 25 12 37 5 7 1 9 -13 6 -11 -3 -20 -10 -20 -17 0 -6 -5
-4 -10 4 -13 20 -12 30 1 30 5 0 7 -5 3 -12 -4 -7 -3 -8 4 -4 6 4 8 14 5 24
-6 14 -4 15 8 5 12 -10 18 -8 32 7 9 11 17 24 17 30 0 5 10 16 23 25 12 8 20
18 18 21 -2 3 7 24 20 47 13 23 24 48 25 55 3 17 -27 53 -38 46 -4 -3 -8 0 -8
5 0 17 21 13 37 -6 13 -17 14 -16 10 5 -5 20 -3 21 11 10 10 -8 13 -9 9 -1 -4
6 -3 14 3 18 19 12 11 44 -10 42 -11 -1 -20 -5 -20 -9 0 -4 -4 -8 -10 -8 -5 0
-1 14 10 32 14 24 16 35 8 45 -8 10 -8 17 1 26 10 9 11 8 6 -5 -4 -11 -2 -18
4 -18 10 0 16 22 12 44 -1 5 5 4 13 -4 18 -14 22 -25 6 -15 -5 3 -10 -1 -10
-9 0 -9 4 -16 9 -16 17 0 22 19 11 41 -11 19 -10 20 10 9 13 -7 20 -8 16 -2
-3 6 -2 13 4 17 6 4 8 11 4 16 -3 5 -10 7 -15 3 -5 -3 -7 -10 -4 -15 3 -5 -1
-6 -11 -2 -15 5 -15 7 0 15 13 7 14 14 6 31 -10 20 -10 20 3 5 17 -22 31 -23
24 -3 -4 8 6 24 22 37 24 21 26 28 19 56 -5 17 -13 32 -19 32 -6 0 -8 4 -4 10
3 5 6 30 7 55 0 25 4 45 9 45 5 0 9 20 9 45 0 25 5 45 10 45 6 0 10 5 10 10 0
6 -9 10 -20 10 -24 0 -25 6 -4 27 17 17 11 62 -9 75 -7 4 -8 8 -3 8 4 0 1 12
-9 26 -9 15 -12 23 -6 19 9 -5 11 8 10 44 -2 44 -5 51 -23 52 -12 0 -15 3 -8
6 10 4 10 8 0 21 -11 13 -11 14 1 7 11 -6 13 -4 8 9 -4 10 -7 23 -7 28 0 6 -3
8 -7 5 -3 -4 -11 -3 -17 3 -7 5 -17 5 -26 -2 -12 -8 -11 -8 5 -3 13 4 17 3 10
-4 -15 -15 -87 4 -106 27 -18 23 -79 40 -79 22 0 -6 -4 -9 -9 -5 -5 3 -12 1
-16 -5 -3 -5 -21 -17 -40 -26 -19 -9 -33 -19 -32 -23 3 -11 -61 -70 -68 -63
-3 3 -5 0 -5 -6 0 -7 -7 -12 -16 -12 -8 0 -12 -5 -9 -10 4 -6 -8 -15 -25 -21
-19 -7 -29 -16 -26 -25 3 -9 0 -11 -11 -7 -11 4 -14 2 -9 -5 4 -7 2 -12 -4
-12 -6 0 -9 -4 -6 -8 3 -5 -4 -16 -15 -25 -10 -9 -19 -13 -19 -9 -1 4 -8 -6
-16 -23 -8 -16 -12 -22 -9 -12 7 27 -10 20 -24 -9 -6 -15 -14 -24 -17 -21 -3
3 -14 -2 -24 -11 -9 -9 -36 -32 -58 -50 -27 -23 -39 -39 -35 -50 4 -10 2 -13
-5 -8 -7 4 -12 2 -12 -4 0 -6 -6 -18 -12 -25 -33 -36 -39 -46 -34 -54 3 -5 -1
-14 -9 -21 -8 -7 -15 -9 -15 -6 0 4 -8 3 -17 -3 -13 -7 -23 -5 -37 7 -15 13
-18 14 -12 2 4 -8 -4 -1 -18 15 -29 34 -31 45 -13 64 10 11 9 12 -3 6 -13 -8
-13 -7 -1 8 9 11 10 17 2 17 -6 0 -11 6 -11 13 0 12 -59 52 -72 49 -5 -1 -8 3
-8 9 0 5 -4 8 -9 4 -5 -3 -13 0 -16 6 -4 5 -13 8 -20 5 -7 -2 -16 2 -19 10 -6
17 -91 13 -109 -5 -8 -8 -7 -11 2 -11 11 0 11 -3 1 -15 -7 -8 -9 -15 -6 -15 4
0 -2 -10 -14 -22 -11 -12 -20 -28 -20 -36 0 -8 -6 -12 -14 -9 -9 4 -33 -11
-58 -34 -24 -21 -37 -39 -29 -39 8 0 2 -9 -13 -21 -14 -11 -26 -27 -26 -35 0
-13 -6 -15 -26 -13 -4 0 -14 -14 -22 -31 -8 -17 -35 -45 -59 -62 -30 -22 -40
-34 -31 -40 9 -5 5 -8 -10 -8 -15 0 -26 -7 -29 -20 -3 -11 -9 -20 -13 -20 -4
0 -11 -12 -14 -26 -4 -15 -14 -33 -21 -41 -8 -8 -15 -24 -15 -35 0 -12 -19
-40 -42 -63 -67 -66 -78 -81 -65 -94 8 -8 8 -11 -1 -11 -7 0 -12 -6 -12 -14 0
-7 -11 -21 -25 -30 -14 -9 -23 -21 -20 -26 4 -6 2 -10 -4 -10 -6 0 -8 -7 -5
-15 4 -8 1 -15 -5 -15 -6 0 -8 -8 -4 -17 3 -10 3 -15 -2 -11 -11 11 -45 -55
-34 -67 4 -6 4 -17 -1 -25 -5 -8 -6 -19 -2 -25 11 -18 11 -35 -1 -35 -8 0 -7
-3 2 -9 10 -7 9 -11 -6 -22 -11 -8 -20 -25 -20 -39 -1 -45 -22 -80 -58 -97
-19 -9 -35 -21 -35 -25 0 -5 4 -6 10 -3 6 4 7 -1 3 -10 -3 -10 -1 -20 6 -24 7
-4 13 -18 14 -29 1 -12 5 -22 10 -22 4 0 6 -4 2 -9 -3 -5 -1 -12 4 -16 6 -3 7
-13 4 -22 -5 -12 -3 -14 8 -8 11 7 12 6 3 -6 -15 -20 -17 -76 -4 -84 9 -6 9
-10 -1 -16 -12 -7 -12 -9 -1 -9 10 0 9 -9 -7 -35 -11 -19 -16 -37 -12 -39 16
-10 9 -100 -10 -125 -10 -13 -16 -28 -12 -34 3 -5 2 -7 -4 -4 -8 5 -57 -74
-58 -94 0 -4 -10 -15 -23 -25 -12 -11 -23 -32 -25 -49 -1 -16 -11 -46 -22 -65
-10 -19 -20 -45 -20 -57 -2 -24 -43 -73 -62 -73 -6 0 -15 -9 -18 -20 -3 -11
-10 -20 -14 -20 -5 0 -20 -18 -35 -40 -14 -22 -24 -40 -22 -40 3 0 -6 -11 -20
-25 -14 -14 -28 -25 -32 -25 -4 0 -23 -14 -42 -30 -51 -44 -50 -44 -110 -73
-30 -14 -70 -29 -89 -32 -19 -3 -38 -8 -42 -11 -4 -2 -11 1 -15 7 -4 8 -9 7
-15 -2 -8 -12 -11 -12 -18 1 -6 8 -13 11 -17 7 -17 -16 -92 52 -99 91 -2 9 -4
19 -5 22 -1 3 -2 8 -1 13 0 4 -3 7 -8 7 -4 0 -8 10 -7 23 1 12 -3 25 -9 29 -6
5 -6 8 3 8 6 0 12 5 12 10 0 6 9 21 20 32 12 13 16 24 10 28 -21 13 -19 48 2
53 11 3 17 10 14 16 -4 6 0 21 9 34 8 13 12 27 8 30 -3 4 -1 7 6 7 7 0 10 4 7
9 -3 5 8 23 26 40 17 17 29 31 25 31 -4 0 -1 13 8 30 8 16 16 33 16 37 1 9 39
46 39 38 0 -3 6 0 14 7 8 7 12 16 9 21 -2 4 1 7 7 7 7 0 9 7 6 16 -3 9 -2 12
5 9 6 -4 13 2 16 14 3 12 9 21 13 21 13 0 33 62 34 103 1 22 7 42 16 47 8 5
11 10 5 10 -5 0 -3 6 6 13 28 22 44 61 45 116 1 29 6 56 12 60 6 3 9 30 8 59
-2 28 1 52 6 52 10 0 30 46 32 75 2 19 25 75 36 85 24 23 38 79 23 94 -10 10
-13 37 -3 31 4 -3 10 9 12 25 3 17 1 30 -3 30 -10 0 -6 34 6 42 5 4 10 17 10
30 1 13 7 33 14 46 6 12 9 28 5 34 -5 7 -3 8 6 3 8 -5 11 -3 8 6 -3 8 -1 22 4
33 8 14 7 17 -4 10 -10 -6 -11 -5 -1 7 10 12 10 18 0 29 -9 9 -9 11 0 6 8 -4
11 1 10 14 -1 11 -4 20 -8 20 -4 0 -5 9 -2 20 3 11 0 26 -6 33 -6 8 -8 17 -4
20 3 4 1 7 -5 7 -7 0 -12 11 -12 25 0 30 -26 85 -40 85 -5 0 -7 7 -4 15 4 8 1
15 -6 15 -6 0 -9 4 -6 8 7 11 -11 37 -26 37 -7 1 -12 6 -11 13 2 7 -2 12 -8
12 -6 0 -20 11 -31 25 -11 14 -24 22 -30 19 -6 -4 -8 -2 -4 4 3 6 1 14 -6 19
-16 9 -198 12 -198 2 0 -4 -21 -6 -47 -5 l-48 2 -1 39 c0 22 3 50 7 61 5 14 2
29 -6 40 -11 16 -11 23 1 47 8 15 12 32 9 37 -3 5 -1 11 4 15 6 3 8 12 4 20
-3 8 0 15 5 15 6 0 9 9 7 20 -2 11 0 20 6 20 5 0 9 6 9 14 0 8 7 17 16 20 8 3
13 10 10 15 -4 5 0 12 6 14 10 4 10 6 0 6 -10 1 -10 6 -2 21 8 14 8 20 0 20
-7 0 -8 6 -1 18 6 11 6 24 0 35 -8 13 -6 19 5 23 8 3 17 12 20 20 4 10 2 13
-7 8 -6 -4 -4 2 6 13 9 11 14 23 10 27 -4 4 -6 22 -5 41 2 21 -2 35 -9 35 -9
0 -9 3 0 14 6 7 9 21 5 30 -3 9 -1 16 5 16 7 0 6 9 -4 24 -17 26 -17 56 0 68
6 5 5 8 -3 8 -9 0 -10 5 -3 17 5 10 5 26 0 40 -5 13 -4 25 1 28 6 4 10 11 10
16 0 6 -4 8 -8 5 -5 -3 -9 1 -9 9 0 8 4 12 9 9 4 -3 7 6 6 20 -1 15 -5 26 -9
26 -4 0 -10 11 -13 24 -3 14 -13 31 -21 40 -8 8 -16 32 -17 53 -2 21 -10 45
-20 53 -9 9 -18 25 -20 35 -7 43 -67 85 -95 67z m4003 -594 c4 -6 3 -8 -4 -4
-6 3 -13 2 -17 -4 -3 -5 -11 -10 -18 -10 -6 0 -2 7 9 15 23 18 21 17 30 3z
m-96 -63 c-7 -8 -8 -20 -4 -26 4 -8 3 -9 -5 -5 -6 4 -18 0 -27 -8 -9 -9 -21
-13 -27 -9 -8 5 -7 8 2 11 25 8 60 45 54 55 -3 6 -1 7 6 3 9 -6 9 -11 1 -21z
m-1300 -70 c0 -2 -6 -5 -13 -8 -8 -3 -14 1 -14 8 0 7 6 11 14 8 7 -3 13 -6 13
-8z m-46 -4 c3 -5 -1 -11 -9 -14 -9 -4 -12 -1 -8 9 6 16 10 17 17 5z m-53 -40
c0 -3 2 -16 5 -28 2 -13 -1 -23 -7 -23 -5 0 -7 5 -4 10 9 14 -8 13 -23 -2 -9
-9 -12 -9 -12 0 0 7 5 12 11 12 5 0 7 4 4 10 -4 6 1 7 12 4 17 -5 17 -5 1 9
-10 8 -18 17 -18 20 0 8 30 -3 31 -12z m32 -11 c3 -11 2 -18 -3 -15 -4 3 -10
14 -13 25 -3 11 -2 18 3 15 4 -3 10 -14 13 -25z m87 17 c0 -2 -10 -12 -22 -23
l-23 -19 19 23 c18 21 26 27 26 19z m-175 -27 c3 -5 1 -10 -4 -10 -6 0 -11 5
-11 10 0 6 2 10 4 10 3 0 8 -4 11 -10z m240 0 c3 -5 1 -10 -4 -10 -6 0 -11 5
-11 10 0 6 2 10 4 10 3 0 8 -4 11 -10z m45 6 c0 -3 -4 -8 -10 -11 -5 -3 -10
-1 -10 4 0 6 5 11 10 11 6 0 10 -2 10 -4z m1191 -19 c-8 -8 -14 -7 -23 2 -11
10 -9 11 6 5 15 -6 17 -4 11 6 -6 9 -4 11 4 5 9 -5 10 -10 2 -18z m-1277 -5
c3 -5 -1 -9 -9 -9 -8 0 -12 4 -9 9 3 4 7 8 9 8 2 0 6 -4 9 -8z m1196 2 c0 -8
-19 -13 -24 -6 -3 5 1 9 9 9 8 0 15 -2 15 -3z m63 -27 c-3 -5 -10 -2 -15 7 -5
9 -14 13 -20 10 -7 -4 -8 -2 -4 4 5 9 12 9 26 0 10 -7 16 -16 13 -21z m-1370
-4 c-4 -11 -3 -14 5 -9 8 5 10 2 5 -10 -5 -15 -7 -15 -15 0 -5 9 -6 21 -3 26
10 16 15 12 8 -7z m197 7 c0 -5 -4 -10 -10 -10 -5 0 -10 5 -10 10 0 6 5 10 10
10 6 0 10 -4 10 -10z m1198 -15 c0 -14 -4 -25 -8 -25 -5 0 -7 8 -5 18 2 9 4
20 4 25 2 18 9 4 9 -18z m-1425 0 c-3 -9 -8 -14 -10 -11 -3 3 -2 9 2 15 9 16
15 13 8 -4z m132 -13 c-3 -3 -11 0 -18 7 -9 10 -8 11 6 5 10 -3 15 -9 12 -12z
m55 3 c0 -2 -9 -3 -19 -2 -11 0 -18 5 -15 9 4 6 34 0 34 -7z m1317 -20 c0 -8
-4 -12 -9 -9 -5 3 -6 10 -3 15 9 13 12 11 12 -6z m-1460 -20 c0 -8 -4 -12 -9
-9 -5 3 -6 10 -3 15 9 13 12 11 12 -6z m78 -3 c-3 -3 -11 0 -18 7 -9 10 -8 11
6 5 10 -3 15 -9 12 -12z m1138 -7 c-3 -9 -8 -14 -10 -11 -3 3 -2 9 2 15 9 16
15 13 8 -4z m-1306 -37 c-3 -8 -6 -5 -6 6 -1 11 2 17 5 13 3 -3 4 -12 1 -19z
m83 13 c0 -5 -7 -12 -16 -15 -14 -5 -15 -4 -4 9 14 17 20 19 20 6z m227 -6 c0
-8 -6 -16 -14 -19 -11 -4 -11 -1 -3 14 13 24 17 25 17 5z m1139 3 c3 -4 -1 -5
-10 -4 -8 1 -18 5 -22 8 -3 4 1 5 10 4 8 -1 18 -5 22 -8z m-1496 -22 c-7 -7
-13 -7 -20 0 -6 6 -3 10 10 10 13 0 16 -4 10 -10z m83 -6 c-3 -12 -8 -19 -11
-16 -5 6 5 36 12 36 2 0 2 -9 -1 -20z m132 10 c3 -5 1 -10 -4 -10 -6 0 -11 5
-11 10 0 6 2 10 4 10 3 0 8 -4 11 -10z m119 -29 c-2 -3 -12 3 -22 13 -16 17
-16 18 5 5 12 -7 20 -15 17 -18z m1266 13 c0 -8 -19 -13 -24 -6 -3 5 1 9 9 9
8 0 15 -2 15 -3z m-1486 -30 c3 -8 2 -12 -4 -9 -6 3 -10 10 -10 16 0 14 7 11
14 -7z m1223 1 c0 -8 -4 -12 -9 -9 -5 3 -6 10 -3 15 9 13 12 11 12 -6z m123 5
c0 -5 -5 -10 -11 -10 -5 0 -7 5 -4 10 3 6 8 10 11 10 2 0 4 -4 4 -10z m-1184
-29 c0 -16 -3 -27 -6 -25 -7 8 -7 54 0 54 4 0 7 -13 6 -29z m85 6 c-6 -8 -8
-16 -5 -19 3 -3 1 -9 -4 -12 -6 -3 -9 0 -8 6 2 16 15 38 23 38 3 0 0 -6 -6
-13z m-165 -25 c-10 -2 -22 0 -28 6 -6 6 0 7 19 4 21 -5 23 -7 9 -10z m41 11
c-4 -3 1 -12 11 -20 15 -13 15 -13 -6 -3 -19 9 -23 30 -5 30 4 0 3 -3 0 -7z
m1363 -18 c-7 -9 -15 -13 -19 -10 -3 3 1 10 9 15 21 14 24 12 10 -5z m-320 -4
c0 9 5 7 11 -5 8 -13 13 -15 19 -6 5 7 8 2 8 -15 0 -18 -5 -25 -15 -21 -8 3
-18 -4 -25 -19 -6 -14 -16 -25 -21 -25 -5 0 -5 6 2 13 6 8 8 17 4 20 -3 4 -1
7 6 7 7 0 9 5 5 11 -4 8 -9 8 -17 0 -6 -6 -18 -11 -26 -10 -10 0 -6 4 8 10 17
7 22 15 18 30 -4 16 -3 18 9 8 11 -9 14 -8 14 2z m284 1 c3 -5 -1 -9 -9 -9 -8
0 -12 4 -9 9 3 4 7 8 9 8 2 0 6 -4 9 -8z m-209 -22 c-3 -5 -12 -10 -18 -10 -7
0 -6 4 3 10 19 12 23 12 15 0z m-1060 -10 c-3 -5 -14 -10 -23 -9 -14 0 -13 2
3 9 27 11 27 11 20 0z m928 -58 c-4 -9 -2 -13 4 -9 13 8 11 -18 -1 -30 -4 -4
-6 -2 -4 6 2 7 -3 16 -11 19 -8 2 -11 0 -8 -5 4 -6 -4 -9 -18 -7 -26 2 -30
-15 -11 -45 7 -10 6 -12 -4 -6 -10 6 -12 4 -7 -9 4 -11 3 -15 -4 -11 -6 4 -8
14 -5 22 4 9 1 13 -6 10 -7 -2 -12 -10 -10 -16 1 -7 -2 -10 -8 -6 -6 3 -8 10
-5 15 3 5 -3 13 -12 19 -16 9 -16 10 3 11 12 0 28 8 35 17 12 15 12 16 -3 10
-10 -3 -18 -2 -18 3 0 6 7 10 15 10 8 0 15 5 15 11 0 6 9 8 21 4 14 -5 19 -3
15 3 -4 6 2 8 13 5 13 -3 18 -10 14 -21z m-23 -77 c0 -5 -5 -3 -10 5 -5 8 -10
20 -10 25 0 6 5 3 10 -5 5 -8 10 -19 10 -25z m-923 -22 c0 -9 -4 -10 -14 -2
-7 6 -13 12 -13 14 0 1 6 2 13 2 8 0 14 -6 14 -14z m-36 -30 c13 -16 12 -17
-3 -4 -10 7 -18 15 -18 17 0 8 8 3 21 -13z m75 -5 c0 -17 -2 -17 -12 -4 -6 9
-15 12 -19 8 -5 -4 -5 -2 -2 4 10 18 33 12 33 -8z m884 2 c0 -5 -5 -10 -11
-10 -5 0 -7 5 -4 10 3 6 8 10 11 10 2 0 4 -4 4 -10z m-886 -46 c3 -8 2 -12 -4
-9 -6 3 -10 10 -10 16 0 14 7 11 14 -7z m846 -20 c0 -2 -7 -4 -15 -4 -8 0 -15
4 -15 10 0 5 7 7 15 4 8 -4 15 -8 15 -10z m-1880 -12 c0 -5 -7 -9 -15 -9 -8 0
-12 4 -9 9 3 4 9 8 15 8 5 0 9 -4 9 -8z m1040 4 c0 -2 -7 -7 -16 -10 -8 -3
-12 -2 -9 4 6 10 25 14 25 6z m814 -11 c11 -8 15 -15 9 -15 -7 0 -15 5 -18 10
-4 6 -11 8 -16 5 -5 -4 -9 -1 -9 4 0 15 11 13 34 -4z m-861 -10 c-3 -9 -8 -14
-10 -11 -3 3 -2 9 2 15 9 16 15 13 8 -4z m-29 -3 c3 -5 -1 -9 -9 -9 -8 0 -12
4 -9 9 3 4 7 8 9 8 2 0 6 -4 9 -8z m50 -20 c3 -5 -1 -9 -9 -9 -8 0 -12 4 -9 9
3 4 7 8 9 8 2 0 6 -4 9 -8z m846 4 c0 -3 -4 -8 -10 -11 -5 -3 -10 -1 -10 4 0
6 5 11 10 11 6 0 10 -2 10 -4z m-880 -20 c0 -3 -4 -8 -10 -11 -5 -3 -10 -1
-10 4 0 6 5 11 10 11 6 0 10 -2 10 -4z m855 -15 c3 -5 2 -12 -3 -15 -5 -3 -9
1 -9 9 0 17 3 19 12 6z m-838 -21 c-1 -21 -10 -18 -13 5 -1 8 2 15 6 15 5 0 8
-9 7 -20z m-254 -14 c-10 -13 -20 -22 -22 -20 -4 4 29 44 36 44 2 0 -4 -11
-14 -24z m1037 4 c0 -5 -4 -10 -10 -10 -5 0 -10 5 -10 10 0 6 5 10 10 10 6 0
10 -4 10 -10z m-1075 -20 c3 -6 -1 -7 -9 -4 -18 7 -21 14 -7 14 6 0 13 -4 16
-10z m1073 -25 c-3 -3 -9 2 -12 12 -6 14 -5 15 5 6 7 -7 10 -15 7 -18z m-987
-2 c13 -16 12 -17 -3 -4 -10 7 -18 15 -18 17 0 8 8 3 21 -13z m984 -23 c-3 -5
-12 -10 -18 -10 -7 0 -6 4 3 10 19 12 23 12 15 0z m-795 -10 c0 -5 -2 -10 -4
-10 -3 0 -8 5 -11 10 -3 6 -1 10 4 10 6 0 11 -4 11 -10z m825 -20 c-3 -5 -14
-10 -23 -9 -14 0 -13 2 3 9 27 11 27 11 20 0z m-847 -43 c14 4 14 3 3 -5 -17
-12 -43 -4 -34 11 5 8 8 8 10 0 3 -7 12 -9 21 -6z m52 3 c0 -5 -8 -10 -17 -10
-15 0 -16 2 -3 10 19 12 20 12 20 0z m930 6 c0 -3 -4 -8 -10 -11 -5 -3 -10 -1
-10 4 0 6 5 11 10 11 6 0 10 -2 10 -4z m885 -36 c-3 -5 -11 -10 -16 -10 -6 0
-7 5 -4 10 3 6 11 10 16 10 6 0 7 -4 4 -10z m-3282 -71 c-8 -8 -13 -7 -18 2
-5 8 -4 10 3 5 7 -4 12 -2 12 5 0 7 3 9 7 6 4 -4 2 -12 -4 -18z m28 -12 c-10
-9 -11 -8 -5 6 3 10 9 15 12 12 3 -3 0 -11 -7 -18z m3429 3 c-6 -11 -13 -20
-16 -20 -2 0 0 9 6 20 6 11 13 20 16 20 2 0 0 -9 -6 -20z m74 -8 c3 -5 -1 -9
-9 -9 -8 0 -12 4 -9 9 3 4 7 8 9 8 2 0 6 -4 9 -8z m-89 -42 c3 -6 -1 -7 -9 -4
-18 7 -21 14 -7 14 6 0 13 -4 16 -10z m-3685 -154 c0 -3 -4 -8 -10 -11 -5 -3
-10 -1 -10 4 0 6 5 11 10 11 6 0 10 -2 10 -4z m65 -363 c-11 -7 -24 -13 -29
-13 -6 1 -1 6 12 13 12 7 19 17 15 22 -4 4 -2 5 6 0 12 -7 11 -10 -4 -22z
m-48 -18 c0 -8 -4 -12 -9 -9 -5 3 -6 10 -3 15 9 13 12 11 12 -6z m333 -291 c0
-2 -9 0 -20 6 -11 6 -20 13 -20 16 0 2 9 0 20 -6 11 -6 20 -13 20 -16z m25
-42 c-3 -3 -11 0 -18 7 -9 10 -8 11 6 5 10 -3 15 -9 12 -12z m970 8 c-3 -5
-12 -10 -18 -10 -7 0 -6 4 3 10 19 12 23 12 15 0z m-867 -25 c-3 -3 -9 2 -12
12 -6 14 -5 15 5 6 7 -7 10 -15 7 -18z m866 -13 c2 -4 -4 -8 -14 -8 -10 0 -16
4 -14 8 3 4 9 8 14 8 5 0 11 -4 14 -8z m-4654 -497 c14 -19 14 -19 -2 -6 -10
7 -18 18 -18 24 0 6 1 8 3 6 1 -2 9 -13 17 -24z m3500 -39 c0 -2 -8 -10 -17
-17 -16 -13 -17 -12 -4 4 13 16 21 21 21 13z m15 -26 c-3 -5 -12 -10 -18 -10
-7 0 -6 4 3 10 19 12 23 12 15 0z m65 4 c0 -8 -19 -13 -24 -6 -3 5 1 9 9 9 8
0 15 -2 15 -3z m-91 -48 c-3 -3 -11 5 -18 17 -13 21 -12 21 5 5 10 -10 16 -20
13 -22z m-139 0 c-7 -7 -13 -7 -20 0 -6 6 -3 10 10 10 13 0 16 -4 10 -10z m37
0 c-7 -17 36 -60 48 -49 4 5 5 2 1 -5 -6 -11 -11 -11 -23 0 -14 11 -15 10 -9
-12 6 -21 5 -22 -4 -7 -6 9 -8 21 -5 27 7 12 -25 29 -45 23 -8 -2 -5 2 8 10
12 7 19 16 16 20 -4 4 -2 7 5 7 7 0 11 -6 8 -14z m147 2 c-3 -4 -9 -8 -15 -8
-5 0 -9 4 -9 8 0 5 7 9 15 9 8 0 12 -4 9 -9z m-206 -43 c-3 -3 -9 2 -12 12 -6
14 -5 15 5 6 7 -7 10 -15 7 -18z m226 4 c3 -3 -8 -5 -23 -4 -16 0 -27 3 -25 7
5 8 40 6 48 -3z m349 -24 c-3 -9 -8 -14 -10 -11 -3 3 -2 9 2 15 9 16 15 13 8
-4z m-529 -20 c-4 -8 -11 -12 -16 -9 -6 4 -5 10 3 15 19 12 19 11 13 -6z m110
-1 c3 -8 2 -12 -4 -9 -6 3 -10 10 -10 16 0 14 7 11 14 -7z m66 12 c0 -3 -4 -8
-10 -11 -5 -3 -10 -1 -10 4 0 6 5 11 10 11 6 0 10 -2 10 -4z m313 -21 c-3 -9
-8 -14 -10 -11 -3 3 -2 9 2 15 9 16 15 13 8 -4z m-403 -39 c0 -2 -7 -7 -16
-10 -8 -3 -12 -2 -9 4 6 10 25 14 25 6z m84 -4 c3 -5 -1 -9 -9 -9 -8 0 -12 4
-9 9 3 4 7 8 9 8 2 0 6 -4 9 -8z m-43 -35 c-10 -9 -11 -8 -5 6 3 10 9 15 12
12 3 -3 0 -11 -7 -18z m27 -46 c-7 -2 -14 1 -16 8 -2 6 -9 8 -14 5 -7 -4 -8
-2 -4 4 5 9 12 8 27 -1 12 -7 15 -13 7 -16z m-263 -29 c-3 -3 -11 0 -18 7 -9
10 -8 11 6 5 10 -3 15 -9 12 -12z m150 -211 c-6 -5 -25 10 -25 20 0 5 6 4 14
-3 8 -7 12 -15 11 -17z m890 -42 c-4 -5 -12 -9 -18 -8 -9 0 -8 2 1 6 6 2 9 10
6 15 -4 7 -2 8 5 4 6 -4 9 -12 6 -17z m44 8 c-2 -1 -13 -9 -24 -17 -19 -14
-19 -14 -6 3 7 9 18 17 24 17 6 0 8 -1 6 -3z m476 -87 c3 -5 1 -10 -4 -10 -6
0 -11 5 -11 10 0 6 2 10 4 10 3 0 8 -4 11 -10z m-1864 -73 c-10 -9 -11 -8 -5
6 3 10 9 15 12 12 3 -3 0 -11 -7 -18z m1809 -287 c0 -5 -5 -10 -11 -10 -5 0
-7 5 -4 10 3 6 8 10 11 10 2 0 4 -4 4 -10z m-50 -36 c0 -8 -19 -13 -24 -6 -3
5 1 9 9 9 8 0 15 -2 15 -3z m25 -4 c3 -5 1 -10 -4 -10 -6 0 -11 5 -11 10 0 6
2 10 4 10 3 0 8 -4 11 -10z m2035 -17 c0 4 6 2 14 -5 8 -7 14 -15 13 -18 -3
-11 28 -50 39 -50 6 0 17 -7 24 -15 11 -13 10 -14 -4 -9 -9 3 -16 1 -16 -5 0
-6 5 -11 11 -11 5 0 7 -5 3 -11 -5 -8 -10 -6 -16 6 -9 15 -12 15 -30 -5 -15
-16 -23 -18 -33 -10 -8 7 -19 9 -25 5 -11 -7 -13 5 -10 44 1 14 -2 21 -9 17
-15 -10 -14 7 2 23 10 11 9 12 -3 6 -13 -8 -13 -6 -2 8 8 9 11 20 8 26 -9 13
17 20 26 7 4 -6 8 -7 8 -3z m-426 -401 c3 -5 -1 -9 -9 -9 -8 0 -12 4 -9 9 3 4
7 8 9 8 2 0 6 -4 9 -8z m-8589 -1032 c-3 -5 -11 -10 -16 -10 -6 0 -7 5 -4 10
3 6 11 10 16 10 6 0 7 -4 4 -10z m4627 -476 c-12 -8 -22 -20 -22 -26 0 -7 6
-3 14 8 8 10 18 15 22 11 5 -4 2 -12 -6 -17 -11 -7 -11 -12 -2 -23 7 -7 9 -16
6 -20 -9 -9 -35 4 -28 14 3 5 0 9 -5 9 -6 0 -11 6 -11 14 0 17 27 46 43 46 6
0 1 -7 -11 -16z m1658 -837 c0 -2 -10 -12 -22 -23 l-23 -19 19 23 c18 21 26
27 26 19z m35 -16 c-9 -8 -36 -10 -30 -2 2 4 11 8 20 8 8 0 13 -3 10 -6z
m-2547 -66 c-3 -3 -9 2 -12 12 -6 14 -5 15 5 6 7 -7 10 -15 7 -18z m2693 -40
c-12 -6 -19 -14 -15 -17 3 -4 -1 -5 -10 -4 -8 1 -19 6 -23 11 -4 4 -3 5 4 1 7
-4 17 2 23 13 6 13 16 18 26 14 14 -5 13 -8 -5 -18z m16 -12 c-4 -3 -2 -12 5
-20 8 -11 7 -12 -6 -7 -18 7 -22 34 -4 34 6 0 8 -3 5 -7z m-141 -25 c4 -7 4
-10 -1 -6 -4 4 -15 2 -24 -5 -14 -11 -14 -10 -2 6 16 20 18 21 27 5z m44 2 c0
-5 -5 -10 -11 -10 -5 0 -7 5 -4 10 3 6 8 10 11 10 2 0 4 -4 4 -10z m41 -17
c13 -16 12 -17 -3 -4 -17 13 -22 21 -14 21 2 0 10 -8 17 -17z m84 -43 c3 -6
-1 -7 -9 -4 -18 7 -21 14 -7 14 6 0 13 -4 16 -10z m-24 -17 c13 -16 12 -17 -3
-4 -17 13 -22 21 -14 21 2 0 10 -8 17 -17z m-81 -17 c0 -2 -7 -7 -16 -10 -8
-3 -12 -2 -9 4 6 10 25 14 25 6z m37 -19 c0 -8 -6 -14 -14 -14 -9 0 -10 4 -2
14 6 7 12 13 14 13 1 0 2 -6 2 -13z m-629 -6 c2 -1 0 -6 -3 -11 -5 -8 -11 -8
-19 -1 -7 6 -17 7 -21 3 -5 -4 -5 -2 -2 5 6 9 18 10 45 4z m-498 -15 c0 -3 -4
-8 -10 -11 -5 -3 -10 -1 -10 4 0 6 5 11 10 11 6 0 10 -2 10 -4z m920 -21 c-7
-8 -17 -15 -23 -15 -6 0 -2 7 9 15 25 19 30 19 14 0z m-308 -10 c0 -5 -5 -11
-11 -13 -6 -2 -11 4 -11 13 0 9 5 15 11 13 6 -2 11 -8 11 -13z m-268 -41 c3
-8 2 -12 -4 -9 -6 3 -10 10 -10 16 0 14 7 11 14 -7z m-259 -4 c3 -5 1 -10 -4
-10 -6 0 -11 5 -11 10 0 6 2 10 4 10 3 0 8 -4 11 -10z m-1900 -214 c8 -7 11
-16 8 -20 -4 -3 -1 -6 5 -6 21 0 13 -16 -13 -28 -28 -13 -43 1 -25 23 12 14 7
20 -14 16 -5 -1 -4 5 4 13 15 19 18 20 35 2z m-144 -223 c12 -14 12 -16 0 -8
-10 6 -13 4 -9 -6 4 -10 -1 -15 -13 -15 -23 0 -25 12 -3 20 8 3 12 10 9 16
-10 16 1 11 16 -7z"/>
<path d="M8725 8370 c-3 -5 -5 -10 -3 -11 33 -8 38 -7 27 7 -14 17 -16 17 -24
4z"/>
<path d="M8614 8299 c-8 -14 13 -18 30 -6 16 12 16 13 -4 13 -12 0 -23 -4 -26
-7z"/>
<path d="M8585 8250 c-3 -6 1 -7 9 -4 18 7 21 14 7 14 -6 0 -13 -4 -16 -10z"/>
<path d="M9536 5101 c-4 -5 3 -7 14 -4 23 6 26 13 6 13 -8 0 -17 -4 -20 -9z"/>
<path d="M9510 5069 c0 -5 5 -7 10 -4 6 3 10 8 10 11 0 2 -4 4 -10 4 -5 0 -10
-5 -10 -11z"/>
<path d="M8325 7960 c3 -5 8 -10 11 -10 2 0 4 5 4 10 0 6 -5 10 -11 10 -5 0
-7 -4 -4 -10z"/>
<path d="M6984 2416 c1 -8 5 -18 8 -22 4 -3 5 1 4 10 -1 8 -5 18 -8 22 -4 3
-5 -1 -4 -10z"/>
<path d="M3945 2360 c-3 -5 -1 -10 4 -10 6 0 11 5 11 10 0 6 -2 10 -4 10 -3 0
-8 -4 -11 -10z"/>
<path d="M3855 2320 c-3 -5 -1 -10 4 -10 6 0 11 5 11 10 0 6 -2 10 -4 10 -3 0
-8 -4 -11 -10z"/>
<path d="M6470 2044 c0 -8 5 -12 10 -9 6 4 8 11 5 16 -9 14 -15 11 -15 -7z"/>
</g>
</svg>
